<svg width="100" height="100" viewBox="0 0 100 100" fill="none" xmlns="http://www.w3.org/2000/svg">
<rect width="100" height="100" fill="#292929"/>
<path d="M29.17 26.26C29.2633 26.2133 29.7067 26.19 30.5 26.19C36.8 26.4233 42.4233 26.4467 47.37 26.26C48.5833 26.2133 49.2833 26.3533 49.47 26.68C49.5167 26.82 49.4233 27.3567 49.19 28.29C49.0033 29.1767 48.8167 29.7133 48.63 29.9L48.42 30.11H47.3C45.6667 30.11 44.6167 30.2033 44.15 30.39C43.9633 30.4367 43.8233 30.5533 43.73 30.74C43.6367 30.9267 42.19 36.62 39.39 47.82C36.59 59.1133 35.0967 64.9467 34.91 65.32C33.51 69.0067 30.8967 71.83 27.07 73.79C26.2767 74.1633 25.4833 74.49 24.69 74.77C20.91 76.03 17.5967 75.8667 14.75 74.28C14.5633 74.1867 14.4 74.0933 14.26 74C12.9533 73.16 12.02 72.1567 11.46 70.99C11.04 70.15 10.83 69.1467 10.83 67.98C10.83 67.0933 10.8533 66.51 10.9 66.23C11.2733 64.69 12.02 63.5233 13.14 62.73C14.8667 61.5633 16.5 61.3767 18.04 62.17C18.5533 62.4033 18.95 62.7533 19.23 63.22C19.5567 63.7333 19.72 64.34 19.72 65.04C19.72 65.7867 19.5333 66.5567 19.16 67.35C18.4133 68.75 17.27 69.6833 15.73 70.15C15.59 70.1967 15.66 70.3367 15.94 70.57C16.9667 71.69 18.4133 72.25 20.28 72.25C22.2867 72.25 24.2 70.9667 26.02 68.4C26.6733 67.4667 27.21 66.44 27.63 65.32L36.17 31.37C36.31 30.9033 36.38 30.6467 36.38 30.6C36.38 30.32 34.7467 30.1567 31.48 30.11H28.68L28.47 29.9C28.19 29.7133 28.19 29.06 28.47 27.94C28.7033 26.96 28.9367 26.4 29.17 26.26ZM58.1773 26.4L58.3873 26.19H59.4373C64.244 26.4233 70.194 26.4467 77.2873 26.26C78.9673 26.2133 79.9007 26.3533 80.0873 26.68C80.134 26.82 80.064 27.3567 79.8773 28.29C79.5973 29.2233 79.4107 29.76 79.3173 29.9L79.1073 30.11H76.3073C73.274 30.1567 71.5473 30.3667 71.1273 30.74C70.9873 30.8333 69.3073 37.3667 66.0873 50.34C62.8673 63.22 61.2573 69.73 61.2573 69.87C61.2573 69.9633 61.3973 70.01 61.6773 70.01H69.0973C71.5707 69.73 73.7873 68.89 75.7473 67.49C76.8207 66.7433 77.684 65.9033 78.3373 64.97C79.784 63.0567 81.1607 60.1633 82.4673 56.29C82.934 55.0767 83.2373 54.4233 83.3773 54.33C83.5173 54.2367 84.054 54.19 84.9873 54.19C85.9207 54.19 86.434 54.2367 86.5273 54.33C86.8073 54.4233 86.9473 54.6333 86.9473 54.96L80.5073 73.65C80.414 73.8367 79.7373 73.93 78.4773 73.93C77.124 73.9767 72.1073 74 63.4273 74H46.8373L46.5573 73.79C46.4173 73.5567 46.3473 73.37 46.3473 73.23C46.3473 72.4833 46.5807 71.5733 47.0473 70.5C47.6073 70.22 48.494 70.08 49.7073 70.08C51.8073 70.0333 52.9973 69.94 53.2773 69.8C53.5107 69.66 53.6973 69.38 53.8373 68.96C54.164 68.0267 55.774 61.7267 58.6673 50.06C61.8873 37.18 63.4973 30.6933 63.4973 30.6C63.4973 30.46 63.4507 30.39 63.3573 30.39C63.0773 30.2967 61.9807 30.2033 60.0673 30.11C58.434 30.11 57.524 29.9467 57.3373 29.62C57.2907 29.48 57.3607 28.9433 57.5473 28.01C57.7807 27.1233 57.9907 26.5867 58.1773 26.4Z" fill="#EAEAEA"/>
</svg>
